<?xml version="1.0" standalone="no"?>
<!DOCTYPE svg PUBLIC "-//W3C//DTD SVG 20010904//EN"
 "http://www.w3.org/TR/2001/REC-SVG-20010904/DTD/svg10.dtd">
<svg version="1.0" xmlns="http://www.w3.org/2000/svg"
 width="512.000000pt" height="512.000000pt" viewBox="0 0 512.000000 512.000000"
 preserveAspectRatio="xMidYMid meet">

<g transform="translate(0.000000,512.000000) scale(0.100000,-0.100000)"
fill="#000000" stroke="none">
<path d="M3310 4060 l0 -300 150 0 150 0 0 300 0 300 -150 0 -150 0 0 -300z"/>
<path d="M2290 3875 l-105 -105 213 -213 212 -212 107 108 108 107 -210 210
c-115 115 -212 210 -215 210 -3 0 -52 -47 -110 -105z"/>
<path d="M4305 3770 l-210 -210 108 -107 107 -108 212 212 213 213 -105 105
c-58 58 -107 105 -110 105 -3 0 -100 -95 -215 -210z"/>
<path d="M3315 3445 c-144 -31 -268 -98 -373 -202 l-77 -76 104 -13 c371 -46
677 -263 837 -592 34 -69 39 -74 97 -101 34 -16 93 -49 132 -74 38 -25 72 -44
76 -41 16 9 71 161 85 231 87 456 -276 887 -743 882 -43 0 -105 -7 -138 -14z"/>
<path d="M1530 3153 c-66 -7 -204 -45 -281 -78 -179 -75 -358 -226 -464 -389
-72 -110 -111 -200 -145 -335 l-27 -104 -59 -17 c-245 -67 -447 -268 -525
-520 -34 -108 -34 -292 0 -400 65 -210 205 -376 395 -469 167 -82 25 -75 1651
-79 1567 -3 1522 -4 1658 49 173 68 334 223 413 398 45 99 58 168 58 301 0
129 -10 185 -56 295 -75 182 -267 359 -450 414 -40 13 -79 26 -86 29 -7 4 -27
47 -43 97 -38 113 -85 190 -172 282 -74 78 -159 137 -253 176 -99 41 -161 52
-289 51 -134 0 -211 -17 -309 -65 l-59 -29 -77 78 c-235 239 -547 351 -880
315z"/>
<path d="M4510 2710 l0 -150 305 0 305 0 0 150 0 150 -305 0 -305 0 0 -150z"/>
</g>
</svg>
