<?xml version="1.0" standalone="no"?>
<!DOCTYPE svg PUBLIC "-//W3C//DTD SVG 20010904//EN"
 "http://www.w3.org/TR/2001/REC-SVG-20010904/DTD/svg10.dtd">
<svg version="1.0" xmlns="http://www.w3.org/2000/svg"
 width="512.000000pt" height="512.000000pt" viewBox="0 0 512.000000 512.000000"
 preserveAspectRatio="xMidYMid meet">

<g transform="translate(0.000000,512.000000) scale(0.100000,-0.100000)"
fill="#000000" stroke="none">
<path d="M2410 5014 c-527 -45 -941 -201 -1347 -506 -111 -83 -332 -298 -415
-403 -290 -370 -457 -758 -524 -1220 -26 -178 -24 -496 4 -680 58 -376 194
-724 400 -1025 394 -575 986 -945 1677 -1052 198 -30 512 -30 710 0 383 59
719 190 1025 400 574 393 945 986 1052 1677 30 198 30 512 0 710 -84 544 -340
1044 -724 1411 -380 363 -840 589 -1353 665 -124 18 -410 31 -505 23z m445
-480 c776 -118 1413 -680 1626 -1433 72 -255 93 -575 55 -826 -111 -729 -599
-1331 -1286 -1588 -220 -82 -440 -120 -690 -120 -198 1 -333 18 -510 64 -679
179 -1220 712 -1411 1388 -52 185 -72 333 -72 541 0 208 20 356 72 541 207
734 824 1292 1575 1425 201 36 438 38 641 8z"/>
<path d="M2385 4344 c-149 -21 -247 -41 -341 -70 -649 -196 -1127 -736 -1250
-1409 -26 -141 -26 -469 0 -610 145 -794 775 -1384 1576 -1476 129 -14 369 -7
500 16 663 118 1209 603 1404 1249 57 188 70 285 70 516 0 231 -13 328 -70
516 -195 647 -738 1129 -1404 1249 -91 16 -415 29 -485 19z m-15 -784 l0 -160
60 0 60 0 0 160 0 160 110 0 110 0 0 -160 0 -160 98 0 c185 0 285 -32 371
-118 152 -152 157 -388 10 -546 -44 -49 -163 -115 -208 -117 -15 0 1 -8 39
-18 137 -35 244 -123 303 -248 30 -64 32 -74 32 -183 0 -108 -2 -119 -31 -180
-58 -122 -165 -213 -289 -245 -39 -10 -105 -15 -192 -15 l-133 0 0 -165 0
-165 -110 0 -110 0 0 165 0 165 -60 0 -60 0 0 -165 0 -165 -110 0 -110 0 0
165 0 165 -195 0 -195 0 0 105 0 105 105 0 105 0 0 625 0 625 -105 0 -105 0 0
105 0 105 195 0 195 0 0 160 0 160 110 0 110 0 0 -160z"/>
<path d="M2362 2923 l3 -208 185 0 c179 0 186 1 230 25 24 14 58 45 75 68 27
39 30 52 30 117 0 65 -3 78 -30 116 -16 23 -50 53 -74 66 -42 22 -55 23 -233
23 l-188 0 2 -207z"/>
<path d="M2360 2240 l0 -240 178 0 c197 0 233 6 294 53 140 107 115 328 -47
403 -47 22 -62 24 -237 24 l-188 0 0 -240z"/>
</g>
</svg>
