<?xml version="1.0" standalone="no"?>
<!DOCTYPE svg PUBLIC "-//W3C//DTD SVG 20010904//EN"
 "http://www.w3.org/TR/2001/REC-SVG-20010904/DTD/svg10.dtd">
<svg version="1.0" xmlns="http://www.w3.org/2000/svg"
 width="512.000000pt" height="512.000000pt" viewBox="0 0 512.000000 512.000000"
 preserveAspectRatio="xMidYMid meet">

<g transform="translate(0.000000,512.000000) scale(0.100000,-0.100000)"
fill="#000000" stroke="none">
<path d="M1315 4517 l-1210 -606 2459 0 2458 -1 -1203 601 c-916 458 -1215
603 -1249 606 -44 5 -95 -20 -1255 -600z"/>
<path d="M6 3583 c40 -171 247 -492 356 -550 l41 -23 2157 0 2157 0 41 23
c109 58 316 379 356 550 l6 27 -2560 0 -2560 0 6 -27z"/>
<path d="M600 1805 l0 -905 455 0 455 0 0 905 0 905 -455 0 -455 0 0 -905z"/>
<path d="M2110 1805 l0 -905 450 0 450 0 0 905 0 905 -450 0 -450 0 0 -905z"/>
<path d="M3610 1805 l0 -905 455 0 455 0 0 905 0 905 -455 0 -455 0 0 -905z"/>
<path d="M275 586 c-79 -34 -275 -343 -275 -433 0 -52 35 -110 80 -133 39 -20
53 -20 2480 -20 2427 0 2441 0 2480 20 46 23 80 81 80 134 0 74 -172 360 -253
420 l-28 21 -2267 2 c-1868 2 -2272 0 -2297 -11z"/>
</g>
</svg>
