<?xml version="1.0" standalone="no"?>
<!DOCTYPE svg PUBLIC "-//W3C//DTD SVG 20010904//EN"
 "http://www.w3.org/TR/2001/REC-SVG-20010904/DTD/svg10.dtd">
<svg version="1.0" xmlns="http://www.w3.org/2000/svg"
 width="512.000000pt" height="512.000000pt" viewBox="0 0 512.000000 512.000000"
 preserveAspectRatio="xMidYMid meet">

<g transform="translate(0.000000,512.000000) scale(0.100000,-0.100000)"
fill="#000000" stroke="none">
<path d="M2315 5109 c-800 -83 -1501 -518 -1927 -1196 -604 -961 -490 -2237
274 -3068 425 -462 951 -737 1583 -827 119 -17 512 -16 635 1 622 86 1148 360
1572 820 349 378 572 861 650 1406 17 118 17 512 0 630 -59 416 -191 769 -410
1099 -92 140 -185 254 -315 385 -399 404 -893 653 -1462 737 -123 18 -478 26
-600 13z m419 -809 c40 -15 49 -46 55 -191 5 -113 9 -140 24 -157 13 -15 50
-26 135 -42 127 -23 263 -65 341 -104 79 -40 81 -60 27 -247 -79 -273 -82
-276 -202 -223 -170 76 -335 109 -502 101 -120 -5 -180 -23 -235 -68 -74 -61
-98 -159 -58 -237 45 -88 142 -151 395 -257 182 -76 340 -153 406 -198 153
-105 269 -269 322 -453 17 -61 22 -105 22 -194 0 -140 -16 -209 -81 -340 -39
-81 -60 -108 -142 -190 -102 -102 -180 -153 -296 -196 -123 -46 -147 -58 -160
-79 -8 -13 -14 -77 -18 -186 -5 -175 -11 -199 -54 -218 -31 -14 -315 -14 -346
0 -44 20 -51 45 -56 211 -4 93 -10 162 -17 168 -6 6 -78 25 -160 41 -164 33
-293 73 -381 118 -79 39 -98 63 -96 115 2 48 88 351 108 383 26 39 49 37 152
-10 192 -88 371 -131 538 -131 165 1 280 46 345 135 94 130 42 288 -128 389
-37 21 -149 73 -250 115 -327 135 -440 202 -567 337 -82 87 -134 180 -161 288
-26 102 -15 299 21 408 77 228 222 366 502 477 50 20 99 46 110 57 15 17 19
43 23 182 3 88 9 167 14 174 4 7 18 17 30 22 29 12 309 12 340 0z"/>
</g>
</svg>
